<?xml version="1.0" encoding="iso-8859-1"?>
<!-- Generator: Adobe Illustrator 19.0.0, SVG Export Plug-In . SVG Version: 6.00 Build 0)  -->
<svg xmlns="http://www.w3.org/2000/svg" xmlns:xlink="http://www.w3.org/1999/xlink" version="1.1" id="Capa_1" x="0px" y="0px" viewBox="0 0 58 58" style="enable-background:new 0 0 58 58;" xml:space="preserve" width="512px" height="512px">
<g>
	<path d="M55.337,41.118c0.111-0.241,0.224-0.481,0.328-0.725c0.103-0.241,0.198-0.485,0.295-0.729   c0.067-0.169,0.136-0.336,0.2-0.506c0.1-0.266,0.192-0.536,0.284-0.807c0.052-0.152,0.105-0.303,0.155-0.456   c0.09-0.277,0.172-0.557,0.254-0.837c0.044-0.152,0.088-0.303,0.13-0.456c0.076-0.278,0.146-0.558,0.214-0.84   c0.039-0.163,0.077-0.326,0.113-0.489c0.06-0.272,0.117-0.545,0.17-0.82c0.035-0.182,0.067-0.365,0.098-0.548   c0.044-0.259,0.088-0.519,0.125-0.781c0.031-0.212,0.056-0.426,0.081-0.639c0.028-0.236,0.058-0.472,0.081-0.71   c0.026-0.267,0.043-0.535,0.061-0.803c0.013-0.191,0.03-0.38,0.039-0.572C57.987,29.935,58,29.468,58,29s-0.013-0.935-0.036-1.4   c-0.009-0.192-0.026-0.381-0.039-0.572c-0.018-0.268-0.036-0.536-0.061-0.803c-0.023-0.238-0.053-0.474-0.081-0.71   c-0.026-0.213-0.051-0.426-0.081-0.639c-0.037-0.262-0.081-0.521-0.125-0.781c-0.031-0.183-0.063-0.366-0.098-0.548   c-0.052-0.275-0.109-0.548-0.17-0.82c-0.036-0.164-0.074-0.326-0.113-0.489c-0.068-0.281-0.138-0.562-0.214-0.84   c-0.041-0.153-0.086-0.304-0.13-0.456c-0.081-0.281-0.164-0.56-0.254-0.837c-0.049-0.153-0.103-0.304-0.155-0.456   c-0.092-0.27-0.185-0.54-0.284-0.807c-0.064-0.17-0.133-0.337-0.2-0.506c-0.097-0.244-0.191-0.488-0.295-0.729   c-0.104-0.244-0.217-0.484-0.328-0.725c-0.074-0.16-0.143-0.322-0.22-0.481c-1.14-2.361-2.604-4.575-4.367-6.574L50,8.978   l-0.025,0.028C44.69,3.464,37.244,0,29,0S13.31,3.464,8.025,9.006L8,8.978l-0.75,0.85c-1.763,1.999-3.227,4.213-4.367,6.574   c-0.076,0.157-0.145,0.318-0.218,0.476c-0.112,0.243-0.226,0.485-0.331,0.731c-0.102,0.239-0.197,0.482-0.293,0.724   c-0.067,0.17-0.137,0.339-0.201,0.51c-0.1,0.266-0.192,0.536-0.284,0.806c-0.052,0.152-0.105,0.303-0.155,0.456   c-0.09,0.277-0.172,0.557-0.254,0.837c-0.044,0.152-0.088,0.303-0.13,0.456c-0.076,0.278-0.146,0.558-0.214,0.84   c-0.039,0.163-0.077,0.326-0.113,0.489c-0.06,0.272-0.117,0.545-0.17,0.82c-0.035,0.182-0.067,0.365-0.098,0.548   c-0.044,0.259-0.088,0.519-0.125,0.781c-0.031,0.212-0.056,0.426-0.081,0.639c-0.028,0.236-0.058,0.472-0.081,0.71   c-0.026,0.267-0.043,0.535-0.061,0.803c-0.013,0.191-0.03,0.38-0.039,0.572C0.013,28.065,0,28.532,0,29s0.013,0.935,0.036,1.4   c0.009,0.192,0.026,0.381,0.039,0.572c0.018,0.268,0.036,0.536,0.061,0.803c0.023,0.238,0.053,0.474,0.081,0.71   c0.026,0.213,0.051,0.426,0.081,0.639c0.037,0.262,0.081,0.521,0.125,0.781c0.031,0.183,0.063,0.366,0.098,0.548   c0.052,0.275,0.109,0.548,0.17,0.82c0.036,0.164,0.074,0.326,0.113,0.489c0.068,0.281,0.138,0.562,0.214,0.84   c0.041,0.153,0.086,0.304,0.13,0.456c0.081,0.281,0.164,0.56,0.254,0.837c0.049,0.153,0.103,0.304,0.155,0.456   c0.092,0.27,0.185,0.54,0.284,0.806c0.064,0.171,0.134,0.34,0.201,0.51c0.096,0.242,0.19,0.485,0.293,0.724   c0.105,0.246,0.219,0.488,0.331,0.731c0.073,0.158,0.142,0.319,0.218,0.476c1.14,2.361,2.604,4.575,4.367,6.574L8,49.022   l0.025-0.028C13.31,54.536,20.756,58,29,58s15.69-3.464,20.975-9.006L50,49.022l0.75-0.85c1.763-1.999,3.227-4.213,4.367-6.574   C55.194,41.44,55.263,41.277,55.337,41.118z M55.91,31.109c-0.008,0.109-0.015,0.218-0.025,0.326   c-0.062,0.686-0.15,1.369-0.264,2.045c-0.014,0.083-0.03,0.165-0.044,0.247c-0.253,1.424-0.619,2.823-1.095,4.182   c-0.016,0.046-0.031,0.093-0.047,0.139c-0.231,0.649-0.491,1.287-0.771,1.916c-0.045,0.101-0.091,0.202-0.137,0.303   c-0.276,0.599-0.572,1.188-0.892,1.767c-0.063,0.115-0.131,0.227-0.196,0.34c-0.308,0.539-0.633,1.07-0.979,1.589   c-0.075,0.112-0.152,0.222-0.228,0.333c-0.324,0.47-0.666,0.928-1.021,1.378c-0.073,0.092-0.144,0.186-0.218,0.277   c-1.355-1.678-2.483-3.506-3.393-5.432l1.716-0.572c0.523-0.175,0.807-0.741,0.632-1.265c-0.175-0.523-0.736-0.807-1.265-0.632   l-1.867,0.622c-0.42-1.091-0.772-2.206-1.047-3.345l2.372-0.339c0.547-0.078,0.927-0.584,0.849-1.131   c-0.078-0.546-0.583-0.93-1.132-0.848l-2.494,0.356c-0.182-1.109-0.279-2.234-0.321-3.367H46c0.553,0,1-0.448,1-1s-0.447-1-1-1   h-1.957c0.042-1.133,0.139-2.258,0.321-3.367l2.494,0.356c0.048,0.007,0.096,0.01,0.143,0.01c0.49,0,0.918-0.36,0.989-0.858   c0.078-0.547-0.302-1.053-0.849-1.131l-2.372-0.339c0.275-1.139,0.627-2.254,1.047-3.345l1.867,0.622   C47.789,19.984,47.896,20,48,20c0.419,0,0.809-0.265,0.948-0.684c0.175-0.524-0.108-1.09-0.632-1.265L46.6,17.479   c0.91-1.925,2.038-3.754,3.393-5.432c0.074,0.091,0.145,0.185,0.218,0.277c0.354,0.45,0.697,0.909,1.021,1.378   c0.076,0.111,0.154,0.221,0.228,0.333c0.346,0.518,0.67,1.049,0.979,1.588c0.065,0.114,0.133,0.226,0.196,0.341   c0.319,0.578,0.616,1.168,0.891,1.766c0.046,0.101,0.092,0.202,0.137,0.303c0.28,0.629,0.54,1.267,0.771,1.916   c0.016,0.046,0.031,0.093,0.047,0.139c0.476,1.36,0.841,2.758,1.095,4.182c0.015,0.083,0.031,0.165,0.044,0.248   c0.114,0.676,0.201,1.359,0.263,2.045c0.01,0.108,0.016,0.217,0.025,0.326C55.965,27.59,56,28.293,56,29S55.965,30.41,55.91,31.109   z M9.052,19.316C9.191,19.735,9.581,20,10,20c0.104,0,0.211-0.017,0.316-0.052l1.867-0.622c0.42,1.091,0.772,2.206,1.047,3.345   l-2.372,0.339c-0.547,0.078-0.927,0.584-0.849,1.131c0.072,0.499,0.5,0.859,0.99,0.859c0.047,0,0.095-0.003,0.143-0.01l2.494-0.356   c0.182,1.109,0.279,2.234,0.321,3.367H12c-0.553,0-1,0.448-1,1s0.447,1,1,1h1.957c-0.042,1.133-0.139,2.258-0.321,3.367   l-2.494-0.356c-0.545-0.078-1.054,0.302-1.132,0.848c-0.078,0.547,0.302,1.053,0.849,1.131l2.372,0.339   c-0.275,1.139-0.627,2.254-1.047,3.345l-1.867-0.622c-0.528-0.175-1.09,0.109-1.265,0.632c-0.175,0.524,0.108,1.09,0.632,1.265   l1.716,0.572c-0.91,1.925-2.038,3.754-3.393,5.432c-0.074-0.091-0.145-0.185-0.218-0.277c-0.354-0.45-0.697-0.909-1.021-1.378   c-0.076-0.111-0.153-0.221-0.228-0.333c-0.346-0.519-0.671-1.051-0.98-1.591c-0.065-0.113-0.131-0.224-0.194-0.338   c-0.32-0.579-0.616-1.168-0.892-1.768c-0.046-0.101-0.092-0.202-0.137-0.303c-0.28-0.629-0.54-1.267-0.771-1.916   c-0.016-0.046-0.031-0.093-0.047-0.139c-0.476-1.36-0.842-2.759-1.095-4.184c-0.014-0.082-0.03-0.163-0.044-0.245   c-0.114-0.677-0.202-1.36-0.264-2.046c-0.01-0.108-0.016-0.217-0.025-0.326C2.035,30.41,2,29.707,2,29s0.035-1.41,0.09-2.109   c0.008-0.109,0.015-0.218,0.025-0.326c0.062-0.687,0.15-1.369,0.264-2.046c0.014-0.082,0.029-0.164,0.044-0.245   c0.253-1.425,0.619-2.824,1.095-4.184c0.016-0.046,0.031-0.093,0.047-0.139c0.231-0.649,0.491-1.287,0.771-1.916   c0.045-0.101,0.091-0.202,0.137-0.303c0.276-0.599,0.572-1.189,0.892-1.767c0.063-0.114,0.13-0.226,0.195-0.339   c0.308-0.54,0.633-1.071,0.979-1.59c0.075-0.112,0.152-0.222,0.228-0.333c0.324-0.47,0.666-0.928,1.021-1.378   c0.073-0.092,0.144-0.186,0.218-0.277c1.355,1.678,2.483,3.506,3.393,5.432l-1.716,0.572C9.16,18.226,8.877,18.792,9.052,19.316z    M29,56c-7.745,0-14.734-3.283-19.663-8.525c1.605-1.939,2.938-4.062,3.98-6.315l2.366,0.789C15.789,41.984,15.896,42,16,42   c0.419,0,0.809-0.265,0.948-0.684c0.175-0.524-0.108-1.09-0.632-1.265l-2.215-0.738c0.459-1.205,0.837-2.44,1.132-3.698   l2.625,0.375c0.048,0.007,0.096,0.01,0.143,0.01c0.49,0,0.918-0.36,0.989-0.858c0.078-0.547-0.302-1.053-0.849-1.131l-2.524-0.361   c0.195-1.203,0.317-2.421,0.36-3.65H18c0.553,0,1-0.448,1-1s-0.447-1-1-1h-2.023c-0.042-1.229-0.164-2.447-0.36-3.65l2.524-0.361   c0.547-0.078,0.927-0.584,0.849-1.131c-0.078-0.546-0.587-0.93-1.132-0.848l-2.625,0.375c-0.295-1.258-0.673-2.493-1.132-3.698   l2.215-0.738c0.523-0.175,0.807-0.741,0.632-1.265c-0.174-0.523-0.737-0.809-1.265-0.632l-2.366,0.789   c-1.042-2.253-2.375-4.376-3.98-6.315C14.266,5.283,21.255,2,29,2s14.734,3.283,19.663,8.525c-1.605,1.939-2.938,4.062-3.98,6.315   l-2.366-0.789c-0.527-0.176-1.091,0.109-1.265,0.632c-0.175,0.524,0.108,1.09,0.632,1.265l2.215,0.738   c-0.459,1.205-0.837,2.44-1.132,3.698l-2.625-0.375c-0.547-0.077-1.054,0.302-1.132,0.848c-0.078,0.547,0.302,1.053,0.849,1.131   l2.524,0.361c-0.195,1.203-0.317,2.421-0.36,3.65H40c-0.553,0-1,0.448-1,1s0.447,1,1,1h2.023c0.042,1.229,0.164,2.447,0.36,3.65   l-2.524,0.361c-0.547,0.078-0.927,0.584-0.849,1.131C39.081,35.64,39.509,36,39.999,36c0.047,0,0.095-0.003,0.143-0.01l2.625-0.375   c0.295,1.258,0.673,2.493,1.132,3.698l-2.215,0.738c-0.523,0.175-0.807,0.741-0.632,1.265C41.191,41.735,41.581,42,42,42   c0.104,0,0.211-0.017,0.316-0.052l2.366-0.789c1.042,2.253,2.375,4.376,3.98,6.315C43.734,52.717,36.745,56,29,56z" fill="#83BBD5"/>
</g>
<g>
</g>
<g>
</g>
<g>
</g>
<g>
</g>
<g>
</g>
<g>
</g>
<g>
</g>
<g>
</g>
<g>
</g>
<g>
</g>
<g>
</g>
<g>
</g>
<g>
</g>
<g>
</g>
<g>
</g>
</svg>
