<?xml version="1.0" encoding="iso-8859-1"?>
<!-- Generator: Adobe Illustrator 19.0.0, SVG Export Plug-In . SVG Version: 6.00 Build 0)  -->
<svg xmlns="http://www.w3.org/2000/svg" xmlns:xlink="http://www.w3.org/1999/xlink" version="1.1" id="Capa_1" x="0px" y="0px" viewBox="0 0 470 470" style="enable-background:new 0 0 470 470;" xml:space="preserve" width="512px" height="512px">
<g>
	<path d="M309.247,171.36l1.768-1.768c2.929-2.93,2.929-7.678,0-10.607c-2.93-2.928-7.678-2.928-10.607,0l-1.768,1.768   l-15.909-15.909c-2.93-2.928-7.678-2.928-10.607,0c-2.929,2.93-2.929,7.678,0,10.607l15.909,15.909l-31.819,31.819l-15.91-15.91   c-2.93-2.928-7.678-2.928-10.607,0c-2.929,2.93-2.929,7.678,0,10.607l15.91,15.91l-31.819,31.819l-15.91-15.91   c-2.93-2.928-7.678-2.928-10.607,0c-2.929,2.93-2.929,7.678,0,10.607l15.91,15.91l-31.819,31.819l-15.909-15.909   c-2.93-2.928-7.678-2.928-10.607,0c-2.929,2.93-2.929,7.678,0,10.607l15.909,15.909l-1.768,1.768c-2.929,2.93-2.929,7.678,0,10.607   c1.465,1.464,3.385,2.196,5.304,2.196s3.839-0.732,5.304-2.196l1.768-1.768l15.909,15.909c1.465,1.464,3.385,2.196,5.304,2.196   s3.839-0.732,5.304-2.196c2.929-2.93,2.929-7.678,0-10.607l-15.909-15.909l31.819-31.819l15.91,15.91   c1.465,1.464,3.385,2.196,5.304,2.196s3.839-0.732,5.304-2.196c2.929-2.93,2.929-7.678,0-10.607l-15.91-15.91l31.819-31.819   l15.91,15.91c1.465,1.464,3.385,2.196,5.304,2.196s3.839-0.732,5.304-2.196c2.929-2.93,2.929-7.678,0-10.607l-15.91-15.91   l31.819-31.819l15.909,15.909c1.465,1.464,3.385,2.196,5.304,2.196s3.839-0.732,5.304-2.196c2.929-2.93,2.929-7.678,0-10.607   L309.247,171.36z" fill="#83BBD5"/>
	<circle cx="86.089" cy="233.524" r="7.5" fill="#83BBD5"/>
	<circle cx="86.089" cy="275.95" r="7.5" fill="#83BBD5"/>
	<path d="M455.941,196.666c3.247-11.542,5.926-23.231,8.047-35.017c0.04-0.182,0.071-0.365,0.097-0.548   c8.636-48.397,7.78-98.407-2.694-146.559c-0.013-0.062-0.023-0.115-0.035-0.168c-0.008-0.037-0.023-0.071-0.032-0.107   c-0.065-0.282-0.148-0.56-0.246-0.834c-0.018-0.051-0.034-0.102-0.053-0.152c-0.116-0.303-0.252-0.599-0.408-0.888   c-0.022-0.04-0.047-0.078-0.069-0.117c-0.136-0.24-0.288-0.474-0.453-0.701c-0.044-0.061-0.087-0.122-0.133-0.181   c-0.194-0.251-0.399-0.496-0.63-0.726c-0.23-0.229-0.474-0.435-0.724-0.628c-0.061-0.047-0.123-0.091-0.185-0.136   c-0.224-0.163-0.454-0.312-0.691-0.447c-0.043-0.024-0.084-0.051-0.127-0.075c-0.286-0.155-0.58-0.29-0.88-0.405   c-0.055-0.021-0.112-0.039-0.168-0.059c-0.267-0.095-0.537-0.175-0.811-0.24c-0.041-0.009-0.079-0.026-0.12-0.035   C429.316,2.908,402.3,0,375.325,0c-48.745,0-96.262,9.246-141.232,27.481c-46.563,18.882-88.337,46.621-124.164,82.447   c-45.269,45.27-78.361,101.56-95.7,162.787c-0.057,0.201-0.11,0.404-0.166,0.605c-3.251,11.557-5.93,23.246-8.051,35.03   c-0.04,0.182-0.071,0.365-0.097,0.548c-8.636,48.397-7.78,98.407,2.694,146.559c0.013,0.062,0.024,0.115,0.035,0.168   c0.008,0.037,0.023,0.071,0.032,0.107c0.065,0.282,0.148,0.56,0.246,0.834c0.018,0.051,0.034,0.102,0.053,0.152   c0.116,0.303,0.252,0.599,0.409,0.888c0.022,0.04,0.047,0.078,0.069,0.117c0.136,0.24,0.288,0.474,0.453,0.701   c0.044,0.061,0.087,0.122,0.133,0.181c0.194,0.251,0.399,0.496,0.63,0.726c0.23,0.229,0.474,0.435,0.724,0.628   c0.061,0.047,0.123,0.091,0.185,0.136c0.224,0.163,0.454,0.313,0.692,0.447c0.043,0.024,0.083,0.051,0.126,0.074   c0.287,0.156,0.581,0.291,0.882,0.406c0.053,0.021,0.108,0.038,0.162,0.057c0.27,0.097,0.543,0.177,0.82,0.242   c0.039,0.009,0.075,0.025,0.114,0.034C40.682,467.092,67.698,470,94.675,470c48.748,0,96.265-9.246,141.232-27.481   c46.563-18.881,88.337-46.621,124.164-82.447c45.269-45.27,78.361-101.56,95.7-162.787   C455.829,197.083,455.881,196.879,455.941,196.666z M438.791,20.602l-4.386,4.386c-2.929,2.93-2.929,7.678,0,10.607   c1.465,1.464,3.385,2.196,5.304,2.196s3.839-0.732,5.304-2.196l4.382-4.382c6.788,37.978,7.442,76.144,2.308,113.249   L325.644,18.402C341.973,16.163,358.558,15,375.325,15C396.587,15,417.875,16.881,438.791,20.602z M162.596,448.624L21.304,307.332   c1.118-5.842,2.381-11.652,3.786-17.425l154.956,154.956C174.271,446.259,168.454,447.513,162.596,448.624z M94.675,455   c-21.263,0-42.551-1.881-63.466-5.602l4.386-4.386c2.929-2.93,2.929-7.678,0-10.607c-2.93-2.928-7.678-2.928-10.607,0l-4.382,4.382   c-6.788-37.978-7.442-76.144-2.308-113.249l126.06,126.06C128.028,453.837,111.442,455,94.675,455z M349.464,349.464   c-43.257,43.258-95.584,74.14-152.683,90.918L29.589,273.19c16.749-56.708,47.545-109.253,90.947-152.654   c43.257-43.258,95.584-74.139,152.684-90.917l116.296,116.296c1.465,1.464,3.384,2.196,5.304,2.196   c1.919,0,3.839-0.732,5.304-2.196c2.929-2.93,2.929-7.678,0-10.607L289.955,25.138c5.775-1.396,11.593-2.65,17.45-3.761   l141.292,141.292c-1.117,5.843-2.381,11.653-3.786,17.426l-23.575-23.574c-2.928-2.928-7.677-2.929-10.606,0.001   c-2.929,2.929-2.929,7.677,0.001,10.606l29.682,29.681C423.662,253.518,392.866,306.062,349.464,349.464z" fill="#83BBD5"/>
	<path d="M137.772,321.62l-13.966,13.966c-2.929,2.93-2.929,7.678,0,10.607c1.465,1.464,3.385,2.196,5.304,2.196   c1.919,0,3.839-0.732,5.304-2.196l13.966-13.966c2.929-2.93,2.929-7.678,0-10.607C145.45,318.692,140.702,318.692,137.772,321.62z" fill="#83BBD5"/>
	<path d="M60.166,399.227L46.2,413.192c-2.929,2.93-2.929,7.678,0,10.607c1.465,1.464,3.385,2.196,5.304,2.196   s3.839-0.732,5.304-2.196l13.966-13.966c2.929-2.93,2.929-7.678,0-10.607C67.844,396.299,63.096,396.299,60.166,399.227z" fill="#83BBD5"/>
	<path d="M335.585,123.808l-13.965,13.965c-2.929,2.93-2.929,7.678,0,10.607c1.465,1.464,3.385,2.196,5.304,2.196   s3.839-0.732,5.304-2.196l13.965-13.965c2.929-2.93,2.929-7.678,0-10.607C343.263,120.88,338.515,120.88,335.585,123.808z" fill="#83BBD5"/>
	<path d="M404.53,72.97c1.919,0,3.839-0.732,5.304-2.196L423.8,56.808c2.929-2.93,2.929-7.678,0-10.607   c-2.93-2.928-7.678-2.928-10.607,0l-13.966,13.966c-2.929,2.93-2.929,7.678,0,10.607C400.691,72.237,402.611,72.97,404.53,72.97z" fill="#83BBD5"/>
</g>
<g>
</g>
<g>
</g>
<g>
</g>
<g>
</g>
<g>
</g>
<g>
</g>
<g>
</g>
<g>
</g>
<g>
</g>
<g>
</g>
<g>
</g>
<g>
</g>
<g>
</g>
<g>
</g>
<g>
</g>
</svg>
