<?xml version="1.0" encoding="iso-8859-1"?>
<!-- Generator: Adobe Illustrator 19.0.0, SVG Export Plug-In . SVG Version: 6.00 Build 0)  -->
<svg xmlns="http://www.w3.org/2000/svg" xmlns:xlink="http://www.w3.org/1999/xlink" version="1.1" id="Capa_1" x="0px" y="0px" viewBox="0 0 470 470" style="enable-background:new 0 0 470 470;" xml:space="preserve" width="512px" height="512px">
<g>
	<path d="M401.167,68.83C356.78,24.444,297.766,0,234.994,0c-62.769,0-121.78,24.444-166.165,68.83   C24.443,113.217,0,172.231,0,235.003c0,62.77,24.444,121.782,68.829,166.167C113.214,445.556,172.226,470,234.994,470   c62.771,0,121.786-24.444,166.173-68.829C445.555,356.785,470,297.772,470,235.003C470,172.231,445.555,113.217,401.167,68.83z    M403.634,376.119h-78.142l-38.851-66.105l40.507-68.922h22.824c4.143,0,7.5-3.357,7.5-7.5s-3.357-7.5-7.5-7.5h-24.479   l-38.851-66.105l40.507-68.922h74.1c17.601,20.302,31.544,43.854,40.818,69.614l-38.444,65.414h-23.651c-4.143,0-7.5,3.357-7.5,7.5   s3.357,7.5,7.5,7.5h23.65l39.066,66.472C433.836,332.827,420.5,355.998,403.634,376.119z M327.148,391.119h62.698   c-26.217,26.005-58.924,45.472-95.449,55.727L327.148,391.119z M196.35,302.514L156.671,235l39.679-67.514h77.301L313.33,235   l-39.68,67.514H196.35z M144.508,226.092h-78.13l-38.445-65.414c9.274-25.76,23.216-49.311,40.816-69.613h74.104l40.506,68.922   L144.508,226.092z M15,235.003c0-18.956,2.41-37.359,6.939-54.921l31.449,53.51l-31.936,54.339   C17.247,270.97,15,253.245,15,235.003z M144.508,76.064H83.037c25.716-24.599,57.371-43.032,92.569-52.913L144.508,76.064z    M325.493,76.064l-31.096-52.91c35.195,9.881,66.848,28.313,92.563,52.91H325.493z M416.613,233.592l31.448-53.509   c4.529,17.561,6.939,35.964,6.939,54.92c0,18.242-2.247,35.967-6.452,52.928L416.613,233.592z M274.273,18.517l39.057,66.456   l-39.679,67.514h-77.302l-39.678-67.514l39.058-66.458C208.474,16.208,221.595,15,234.994,15   C248.398,15,261.524,16.209,274.273,18.517z M142.853,391.119l32.753,55.729c-36.528-10.254-69.237-29.722-95.455-55.729H142.853z    M195.729,451.486l-39.058-66.458l12.209-20.775c2.099-3.571,0.905-8.167-2.666-10.266c-3.567-2.1-8.167-0.906-10.266,2.666   l-11.44,19.467H66.363c-16.866-20.122-30.2-43.292-39.052-68.556l39.067-66.472h76.475l40.506,68.922l-12.21,20.775   c-2.099,3.57-0.905,8.167,2.666,10.266c1.193,0.702,2.501,1.035,3.793,1.035c2.571,0,5.075-1.323,6.473-3.701l12.269-20.875h77.303   l39.679,67.514l-39.057,66.457c-12.749,2.307-25.875,3.516-39.279,3.516C221.595,455,208.474,453.792,195.729,451.486z" fill="#83BBD5"/>
	<circle cx="349.66" cy="293.785" r="7.5" fill="#83BBD5"/>
	<circle cx="379.66" cy="323.785" r="7.5" fill="#83BBD5"/>
	<circle cx="90.34" cy="146.215" r="7.5" fill="#83BBD5"/>
</g>
<g>
</g>
<g>
</g>
<g>
</g>
<g>
</g>
<g>
</g>
<g>
</g>
<g>
</g>
<g>
</g>
<g>
</g>
<g>
</g>
<g>
</g>
<g>
</g>
<g>
</g>
<g>
</g>
<g>
</g>
</svg>
